REM DIRINDEX 1\2,1\3,1\4,1\5
REM DIRNAME "folder01","folder02","folder03","folder04","folder05"
TITLE ""
FILE "P1Q_t_1001-1009.mp3" MP3
  TRACK 01 AUDIO
    TITLE "2:cjc173_3955"
    INDEX 01 00:00:00
  TRACK 02 AUDIO
    TITLE "0:"
    INDEX 01 00:03:28
  TRACK 03 AUDIO
    TITLE "2:cjc173_3956"
    INDEX 01 00:03:73
  TRACK 04 AUDIO
    TITLE "0:"
    INDEX 01 00:05:51
  TRACK 05 AUDIO
    TITLE "2:cjc173_3957"
    INDEX 01 00:06:25
  TRACK 06 AUDIO
    TITLE "0:"
    INDEX 01 00:07:28
  TRACK 07 AUDIO
    TITLE "3:cjc173_3958"
    INDEX 01 00:07:73
  TRACK 08 AUDIO
    TITLE "0:"
    INDEX 01 00:09:31
  TRACK 09 AUDIO
    TITLE "4:cjc173_3959"
    INDEX 01 00:09:50
  TRACK 10 AUDIO
    TITLE "0:"
    INDEX 01 00:11:30
  TRACK 11 AUDIO
    TITLE "5:cjc173_3960"
    INDEX 01 00:11:49
  TRACK 12 AUDIO
    TITLE "0:"
    INDEX 01 00:15:29
  TRACK 13 AUDIO
    TITLE "3:cjc173_3961"
    INDEX 01 00:15:75
  TRACK 14 AUDIO
    TITLE "0:"
    INDEX 01 00:17:05
  TRACK 15 AUDIO
    TITLE "4:cjc173_3962"
    INDEX 01 00:17:24
  TRACK 16 AUDIO
    TITLE "0:"
    INDEX 01 00:20:37
  TRACK 17 AUDIO
    TITLE "5:cjc173_3963"
    INDEX 01 00:20:54
  TRACK 18 AUDIO
    TITLE "0:"
    INDEX 01 00:24:56
  TRACK 19 AUDIO
    TITLE "3:cjc173_3964"
    INDEX 01 00:25:28
  TRACK 20 AUDIO
    TITLE "0:"
    INDEX 01 00:26:47
  TRACK 21 AUDIO
    TITLE "4:cjc173_3965"
    INDEX 01 00:26:68
  TRACK 22 AUDIO
    TITLE "0:"
    INDEX 01 00:30:02
  TRACK 23 AUDIO
    TITLE "5:cjc173_3966"
    INDEX 01 00:30:21
  TRACK 24 AUDIO
    TITLE "0:"
    INDEX 01 00:34:25
  TRACK 25 AUDIO
    TITLE "3:cjc173_3967"
    INDEX 01 00:34:72
  TRACK 26 AUDIO
    TITLE "0:"
    INDEX 01 00:36:14
  TRACK 27 AUDIO
    TITLE "4:cjc173_3968"
    INDEX 01 00:36:36
  TRACK 28 AUDIO
    TITLE "0:"
    INDEX 01 00:39:46
  TRACK 29 AUDIO
    TITLE "5:cjc173_3969"
    INDEX 01 00:39:65
  TRACK 30 AUDIO
    TITLE "0:"
    INDEX 01 00:42:67
  TRACK 31 AUDIO
    TITLE "3:cjc173_3970"
    INDEX 01 00:43:40
  TRACK 32 AUDIO
    TITLE "0:"
    INDEX 01 00:44:57
  TRACK 33 AUDIO
    TITLE "4:cjc173_3971"
    INDEX 01 00:45:01
  TRACK 34 AUDIO
    TITLE "0:"
    INDEX 01 00:47:37
  TRACK 35 AUDIO
    TITLE "5:cjc173_3972"
    INDEX 01 00:47:57
  TRACK 36 AUDIO
    TITLE "0:"
    INDEX 01 00:51:41
  TRACK 37 AUDIO
    TITLE "3:cjc173_3973"
    INDEX 01 00:52:11
  TRACK 38 AUDIO
    TITLE "0:"
    INDEX 01 00:53:24
  TRACK 39 AUDIO
    TITLE "4:cjc173_3974"
    INDEX 01 00:53:48
  TRACK 40 AUDIO
    TITLE "0:"
    INDEX 01 00:57:63
  TRACK 41 AUDIO
    TITLE "5:cjc173_3975"
    INDEX 01 00:58:08
  TRACK 42 AUDIO
    TITLE "0:"
    INDEX 01 01:02:49
  TRACK 43 AUDIO
    TITLE "3:cjc173_3976"
    INDEX 01 01:03:19
  TRACK 44 AUDIO
    TITLE "0:"
    INDEX 01 01:04:42
  TRACK 45 AUDIO
    TITLE "4:cjc173_3977"
    INDEX 01 01:04:61
  TRACK 46 AUDIO
    TITLE "0:"
    INDEX 01 01:10:05
  TRACK 47 AUDIO
    TITLE "5:cjc173_3978"
    INDEX 01 01:10:25
  TRACK 48 AUDIO
    TITLE "0:"
    INDEX 01 01:15:43
  TRACK 49 AUDIO
    TITLE "3:cjc173_3979"
    INDEX 01 01:16:13
  TRACK 50 AUDIO
    TITLE "0:"
    INDEX 01 01:17:36
  TRACK 51 AUDIO
    TITLE "4:cjc173_3980"
    INDEX 01 01:17:60
  TRACK 52 AUDIO
    TITLE "0:"
    INDEX 01 01:20:25
  TRACK 53 AUDIO
    TITLE "5:cjc173_3981"
    INDEX 01 01:20:45
  TRACK 54 AUDIO
    TITLE "0:"
    INDEX 01 01:25:16
  TRACK 55 AUDIO
    TITLE "3:cjc173_3982"
    INDEX 01 01:25:61
  TRACK 56 AUDIO
    TITLE "0:"
    INDEX 01 01:26:73
  TRACK 57 AUDIO
    TITLE "4:cjc173_3983"
    INDEX 01 01:27:17
  TRACK 58 AUDIO
    TITLE "0:"
    INDEX 01 01:30:27
  TRACK 59 AUDIO
    TITLE "5:cjc173_3984"
    INDEX 01 01:30:47
  TRACK 60 AUDIO
    TITLE "0:"
    INDEX 01 01:35:64
